<svg viewBox="-1.2 -1.2 2.4 2.4" xmlns="http://www.w3.org/2000/svg">
<path d="M0.9783945,0.57569814 L0.9660249,0.46346283 L0.94763017,0.25017905 L0.35074806,0.12015605 L0.33490038,-0.27929664 L0.66150093,-0.16820288 L0.9000828,-0.5265882 L0.7972746,-0.7812638 L0.4253807,-0.885926 L-0.38139176,-0.5798762 L-0.36812425,-0.33443952 L-0.28556967,-0.048312664 L-0.8845196,-0.15116572 L-0.8526614,0.49383664 L-0.83331656,0.9207232 L-0.7207203,0.8290491 L-0.5008707,0.9570825 L-0.09658122,0.5986593 L0.8878596,0.77445745 L0.8908999,0.7586994 L0.9783945,0.57569814" fill="none" stroke="red" stroke-width="0.01"/>
<g>
<circle cx="0.9783945" cy="0.57569814" fill="red" r="0.02"/>
<circle cx="0.9660249" cy="0.46346283" fill="red" r="0.02"/>
<circle cx="0.94763017" cy="0.25017905" fill="red" r="0.02"/>
<circle cx="0.35074806" cy="0.12015605" fill="red" r="0.02"/>
<circle cx="0.33490038" cy="-0.27929664" fill="red" r="0.02"/>
<circle cx="0.66150093" cy="-0.16820288" fill="red" r="0.02"/>
<circle cx="0.9000828" cy="-0.5265882" fill="red" r="0.02"/>
<circle cx="0.7972746" cy="-0.7812638" fill="red" r="0.02"/>
<circle cx="0.4253807" cy="-0.885926" fill="red" r="0.02"/>
<circle cx="-0.38139176" cy="-0.5798762" fill="red" r="0.02"/>
<circle cx="-0.36812425" cy="-0.33443952" fill="red" r="0.02"/>
<circle cx="-0.28556967" cy="-0.048312664" fill="red" r="0.02"/>
<circle cx="-0.8845196" cy="-0.15116572" fill="red" r="0.02"/>
<circle cx="-0.8526614" cy="0.49383664" fill="red" r="0.02"/>
<circle cx="-0.83331656" cy="0.9207232" fill="red" r="0.02"/>
<circle cx="-0.7207203" cy="0.8290491" fill="red" r="0.02"/>
<circle cx="-0.5008707" cy="0.9570825" fill="red" r="0.02"/>
<circle cx="-0.09658122" cy="0.5986593" fill="red" r="0.02"/>
<circle cx="0.8878596" cy="0.77445745" fill="red" r="0.02"/>
<circle cx="0.8908999" cy="0.7586994" fill="red" r="0.02"/>
<circle cx="0.9783945" cy="0.57569814" fill="red" r="0.02"/>
</g>
</svg>