<svg viewBox="-1.2 -1.2 2.4 2.4" xmlns="http://www.w3.org/2000/svg">
<path d="M-0.55183864,0.36379218 L-0.3254149,0.51885724 L-0.27105308,0.59917164 L-0.20212889,0.5572717 L-0.054124594,0.5437603 L-0.19854355,0.6912012 L-0.13540268,0.76304436 L-0.2429092,0.8036063 L-0.24265337,0.7298763 L-0.42085576,0.6641922" fill="none" stroke="red" stroke-width="0.01"/>
<g>
<circle cx="-0.55183864" cy="0.36379218" fill="red" r="0.02"/>
<circle cx="-0.3254149" cy="0.51885724" fill="red" r="0.02"/>
<circle cx="-0.27105308" cy="0.59917164" fill="red" r="0.02"/>
<circle cx="-0.20212889" cy="0.5572717" fill="red" r="0.02"/>
<circle cx="-0.054124594" cy="0.5437603" fill="red" r="0.02"/>
<circle cx="-0.19854355" cy="0.6912012" fill="red" r="0.02"/>
<circle cx="-0.13540268" cy="0.76304436" fill="red" r="0.02"/>
<circle cx="-0.2429092" cy="0.8036063" fill="red" r="0.02"/>
<circle cx="-0.24265337" cy="0.7298763" fill="red" r="0.02"/>
<circle cx="-0.42085576" cy="0.6641922" fill="red" r="0.02"/>
</g>
<path d="M-0.6039386,-0.11189556 L-0.6187594,-0.088353395 L-0.796335,-0.10434127 L-0.78284836,0.015471458 L-0.5778947,0.3177998 L-0.4440279,0.39937592 L-0.46184945,0.24350739 L-0.33177257,0.23552155 L-0.31181645,0.25472093 L-0.06548309,0.20939541" fill="none" stroke="green" stroke-width="0.01"/>
<g>
<circle cx="-0.6039386" cy="-0.11189556" fill="green" r="0.02"/>
<circle cx="-0.6187594" cy="-0.088353395" fill="green" r="0.02"/>
<circle cx="-0.796335" cy="-0.10434127" fill="green" r="0.02"/>
<circle cx="-0.78284836" cy="0.015471458" fill="green" r="0.02"/>
<circle cx="-0.5778947" cy="0.3177998" fill="green" r="0.02"/>
<circle cx="-0.4440279" cy="0.39937592" fill="green" r="0.02"/>
<circle cx="-0.46184945" cy="0.24350739" fill="green" r="0.02"/>
<circle cx="-0.33177257" cy="0.23552155" fill="green" r="0.02"/>
<circle cx="-0.31181645" cy="0.25472093" fill="green" r="0.02"/>
<circle cx="-0.06548309" cy="0.20939541" fill="green" r="0.02"/>
</g>
<path d="M0.9632604,-0.6908834 L0.9710407,-0.72465277 L0.7267232,-0.8003166 L0.7195332,-0.9349148 L0.5603905,-0.9279282 L0.5076499,-0.9153936 L0.28410363,-0.7000823 L0.2969451,-0.84318924 L0.14010525,-0.95348454 L-0.25807834,-0.9230919" fill="none" stroke="blue" stroke-width="0.01"/>
<g>
<circle cx="0.9632604" cy="-0.6908834" fill="blue" r="0.02"/>
<circle cx="0.9710407" cy="-0.72465277" fill="blue" r="0.02"/>
<circle cx="0.7267232" cy="-0.8003166" fill="blue" r="0.02"/>
<circle cx="0.7195332" cy="-0.9349148" fill="blue" r="0.02"/>
<circle cx="0.5603905" cy="-0.9279282" fill="blue" r="0.02"/>
<circle cx="0.5076499" cy="-0.9153936" fill="blue" r="0.02"/>
<circle cx="0.28410363" cy="-0.7000823" fill="blue" r="0.02"/>
<circle cx="0.2969451" cy="-0.84318924" fill="blue" r="0.02"/>
<circle cx="0.14010525" cy="-0.95348454" fill="blue" r="0.02"/>
<circle cx="-0.25807834" cy="-0.9230919" fill="blue" r="0.02"/>
</g>
<path d="M0.9851427,0.15078616 L0.9650729,0.35486054 L0.949455,0.6817863 L0.8882241,0.8742006 L0.8472173,0.64543486 L0.8121269,0.58555865 L0.7902553,0.45759678 L0.6786244,0.4193449 L0.69714093,0.24741745 L0.3932042,0.36424398" fill="none" stroke="orange" stroke-width="0.01"/>
<g>
<circle cx="0.9851427" cy="0.15078616" fill="orange" r="0.02"/>
<circle cx="0.9650729" cy="0.35486054" fill="orange" r="0.02"/>
<circle cx="0.949455" cy="0.6817863" fill="orange" r="0.02"/>
<circle cx="0.8882241" cy="0.8742006" fill="orange" r="0.02"/>
<circle cx="0.8472173" cy="0.64543486" fill="orange" r="0.02"/>
<circle cx="0.8121269" cy="0.58555865" fill="orange" r="0.02"/>
<circle cx="0.7902553" cy="0.45759678" fill="orange" r="0.02"/>
<circle cx="0.6786244" cy="0.4193449" fill="orange" r="0.02"/>
<circle cx="0.69714093" cy="0.24741745" fill="orange" r="0.02"/>
<circle cx="0.3932042" cy="0.36424398" fill="orange" r="0.02"/>
</g>
<path d="M-0.42749667,-0.59472847 L-0.38355374,-0.6417272 L-0.36034513,-0.9838228 L-0.4618299,-0.84721804 L-0.5179124,-0.8687706 L-0.5957713,-0.72985816 L-0.5520153,-0.6500478 L-0.7403579,-0.53834057 L-0.79154897,-0.65647554 L-0.8760147,-0.7904358" fill="none" stroke="purple" stroke-width="0.01"/>
<g>
<circle cx="-0.42749667" cy="-0.59472847" fill="purple" r="0.02"/>
<circle cx="-0.38355374" cy="-0.6417272" fill="purple" r="0.02"/>
<circle cx="-0.36034513" cy="-0.9838228" fill="purple" r="0.02"/>
<circle cx="-0.4618299" cy="-0.84721804" fill="purple" r="0.02"/>
<circle cx="-0.5179124" cy="-0.8687706" fill="purple" r="0.02"/>
<circle cx="-0.5957713" cy="-0.72985816" fill="purple" r="0.02"/>
<circle cx="-0.5520153" cy="-0.6500478" fill="purple" r="0.02"/>
<circle cx="-0.7403579" cy="-0.53834057" fill="purple" r="0.02"/>
<circle cx="-0.79154897" cy="-0.65647554" fill="purple" r="0.02"/>
<circle cx="-0.8760147" cy="-0.7904358" fill="purple" r="0.02"/>
</g>
<path d="M0.5437014,0.18595695 L0.643872,0.16757655 L0.83759236,0.035007715 L0.93117833,-0.03843069 L0.8378079,-0.118196726 L0.7335942,-0.09399629 L0.6921239,-0.078314304 L0.5446265,-0.14496732 L0.51207256,-0.11584234 L0.47454643,-0.1513288" fill="none" stroke="pink" stroke-width="0.01"/>
<g>
<circle cx="0.5437014" cy="0.18595695" fill="pink" r="0.02"/>
<circle cx="0.643872" cy="0.16757655" fill="pink" r="0.02"/>
<circle cx="0.83759236" cy="0.035007715" fill="pink" r="0.02"/>
<circle cx="0.93117833" cy="-0.03843069" fill="pink" r="0.02"/>
<circle cx="0.8378079" cy="-0.118196726" fill="pink" r="0.02"/>
<circle cx="0.7335942" cy="-0.09399629" fill="pink" r="0.02"/>
<circle cx="0.6921239" cy="-0.078314304" fill="pink" r="0.02"/>
<circle cx="0.5446265" cy="-0.14496732" fill="pink" r="0.02"/>
<circle cx="0.51207256" cy="-0.11584234" fill="pink" r="0.02"/>
<circle cx="0.47454643" cy="-0.1513288" fill="pink" r="0.02"/>
</g>
<path d="M0.02537942,0.3485105 L0.0826931,0.34401345 L0.26371193,0.41804242 L0.25628805,0.5424974 L0.21013021,0.6452527 L0.20898247,0.74197865 L-0.01385355,0.8833308 L0.056846857,0.99341416 L0.17014313,0.9139805 L0.3137431,0.92887807" fill="none" stroke="yellow" stroke-width="0.01"/>
<g>
<circle cx="0.02537942" cy="0.3485105" fill="yellow" r="0.02"/>
<circle cx="0.0826931" cy="0.34401345" fill="yellow" r="0.02"/>
<circle cx="0.26371193" cy="0.41804242" fill="yellow" r="0.02"/>
<circle cx="0.25628805" cy="0.5424974" fill="yellow" r="0.02"/>
<circle cx="0.21013021" cy="0.6452527" fill="yellow" r="0.02"/>
<circle cx="0.20898247" cy="0.74197865" fill="yellow" r="0.02"/>
<circle cx="-0.01385355" cy="0.8833308" fill="yellow" r="0.02"/>
<circle cx="0.056846857" cy="0.99341416" fill="yellow" r="0.02"/>
<circle cx="0.17014313" cy="0.9139805" fill="yellow" r="0.02"/>
<circle cx="0.3137431" cy="0.92887807" fill="yellow" r="0.02"/>
</g>
<path d="M-0.56833553,-0.20689154 L-0.39756727,-0.14467216 L-0.3285048,-0.027130842 L-0.22089553,-0.26735044 L-0.37087798,-0.383919 L-0.26298666,-0.6535053 L-0.22860026,-0.5357835 L-0.21389055,-0.47635698 L0.036433697,-0.37245607 L0.05011773,-0.22451949" fill="none" stroke="brown" stroke-width="0.01"/>
<g>
<circle cx="-0.56833553" cy="-0.20689154" fill="brown" r="0.02"/>
<circle cx="-0.39756727" cy="-0.14467216" fill="brown" r="0.02"/>
<circle cx="-0.3285048" cy="-0.027130842" fill="brown" r="0.02"/>
<circle cx="-0.22089553" cy="-0.26735044" fill="brown" r="0.02"/>
<circle cx="-0.37087798" cy="-0.383919" fill="brown" r="0.02"/>
<circle cx="-0.26298666" cy="-0.6535053" fill="brown" r="0.02"/>
<circle cx="-0.22860026" cy="-0.5357835" fill="brown" r="0.02"/>
<circle cx="-0.21389055" cy="-0.47635698" fill="brown" r="0.02"/>
<circle cx="0.036433697" cy="-0.37245607" fill="brown" r="0.02"/>
<circle cx="0.05011773" cy="-0.22451949" fill="brown" r="0.02"/>
</g>
<path d="M0.07293773,0.013733625 L0.22102594,-0.3591385 L0.43311048,-0.5061796 L0.47431207,-0.42281246 L0.5557947,-0.39742255 L0.5138247,-0.30498934 L0.74118686,-0.3060918 L0.65073204,-0.52282953 L0.7088101,-0.5615885 L0.88476634,-0.61211085" fill="none" stroke="plum" stroke-width="0.01"/>
<g>
<circle cx="0.07293773" cy="0.013733625" fill="plum" r="0.02"/>
<circle cx="0.22102594" cy="-0.3591385" fill="plum" r="0.02"/>
<circle cx="0.43311048" cy="-0.5061796" fill="plum" r="0.02"/>
<circle cx="0.47431207" cy="-0.42281246" fill="plum" r="0.02"/>
<circle cx="0.5557947" cy="-0.39742255" fill="plum" r="0.02"/>
<circle cx="0.5138247" cy="-0.30498934" fill="plum" r="0.02"/>
<circle cx="0.74118686" cy="-0.3060918" fill="plum" r="0.02"/>
<circle cx="0.65073204" cy="-0.52282953" fill="plum" r="0.02"/>
<circle cx="0.7088101" cy="-0.5615885" fill="plum" r="0.02"/>
<circle cx="0.88476634" cy="-0.61211085" fill="plum" r="0.02"/>
</g>
<path d="M-0.5922046,0.84304214 L-0.7072277,0.9005506 L-0.7392106,0.7293484 L-0.6251507,0.6795516 L-0.6713209,0.6077454 L-0.77564526,0.4135518 L-0.9089,0.5307946 L-0.9108672,0.39227748 L-0.94111514,0.31224537 L-0.9138324,0.24631858" fill="none" stroke="teal" stroke-width="0.01"/>
<g>
<circle cx="-0.5922046" cy="0.84304214" fill="teal" r="0.02"/>
<circle cx="-0.7072277" cy="0.9005506" fill="teal" r="0.02"/>
<circle cx="-0.7392106" cy="0.7293484" fill="teal" r="0.02"/>
<circle cx="-0.6251507" cy="0.6795516" fill="teal" r="0.02"/>
<circle cx="-0.6713209" cy="0.6077454" fill="teal" r="0.02"/>
<circle cx="-0.77564526" cy="0.4135518" fill="teal" r="0.02"/>
<circle cx="-0.9089" cy="0.5307946" fill="teal" r="0.02"/>
<circle cx="-0.9108672" cy="0.39227748" fill="teal" r="0.02"/>
<circle cx="-0.94111514" cy="0.31224537" fill="teal" r="0.02"/>
<circle cx="-0.9138324" cy="0.24631858" fill="teal" r="0.02"/>
</g>
</svg>