<svg viewBox="-1.2 -1.2 2.4 2.4" xmlns="http://www.w3.org/2000/svg">
<path d="M-0.94111514,0.31224537 L-0.9108672,0.39227748 L-0.9089,0.5307946 L-0.7072277,0.9005506 L-0.6251507,0.6795516 L-0.6713209,0.6077454 L-0.55183864,0.36379218 L-0.4440279,0.39937592 L-0.31181645,0.25472093 L0.07293773,0.013733625 L0.5437014,0.18595695 L0.7902553,0.45759678 L0.3932042,0.36424398 L0.25628805,0.5424974 L0.0826931,0.34401345 L0.02537942,0.3485105 L-0.3254149,0.51885724 L-0.2429092,0.8036063 L-0.13540268,0.76304436 L0.17014313,0.9139805" fill="none" stroke="red" stroke-width="0.01"/>
<g>
<circle cx="-0.94111514" cy="0.31224537" fill="red" r="0.02"/>
<circle cx="-0.9108672" cy="0.39227748" fill="red" r="0.02"/>
<circle cx="-0.9089" cy="0.5307946" fill="red" r="0.02"/>
<circle cx="-0.7072277" cy="0.9005506" fill="red" r="0.02"/>
<circle cx="-0.6251507" cy="0.6795516" fill="red" r="0.02"/>
<circle cx="-0.6713209" cy="0.6077454" fill="red" r="0.02"/>
<circle cx="-0.55183864" cy="0.36379218" fill="red" r="0.02"/>
<circle cx="-0.4440279" cy="0.39937592" fill="red" r="0.02"/>
<circle cx="-0.31181645" cy="0.25472093" fill="red" r="0.02"/>
<circle cx="0.07293773" cy="0.013733625" fill="red" r="0.02"/>
<circle cx="0.5437014" cy="0.18595695" fill="red" r="0.02"/>
<circle cx="0.7902553" cy="0.45759678" fill="red" r="0.02"/>
<circle cx="0.3932042" cy="0.36424398" fill="red" r="0.02"/>
<circle cx="0.25628805" cy="0.5424974" fill="red" r="0.02"/>
<circle cx="0.0826931" cy="0.34401345" fill="red" r="0.02"/>
<circle cx="0.02537942" cy="0.3485105" fill="red" r="0.02"/>
<circle cx="-0.3254149" cy="0.51885724" fill="red" r="0.02"/>
<circle cx="-0.2429092" cy="0.8036063" fill="red" r="0.02"/>
<circle cx="-0.13540268" cy="0.76304436" fill="red" r="0.02"/>
<circle cx="0.17014313" cy="0.9139805" fill="red" r="0.02"/>
</g>
<path d="M-0.6039386,-0.11189556 L-0.37087798,-0.383919 L-0.21389055,-0.47635698 L-0.38355374,-0.6417272 L-0.42749667,-0.59472847 L-0.79154897,-0.65647554 L-0.5179124,-0.8687706 L-0.4618299,-0.84721804 L-0.25807834,-0.9230919 L0.2969451,-0.84318924" fill="none" stroke="green" stroke-width="0.01"/>
<g>
<circle cx="-0.6039386" cy="-0.11189556" fill="green" r="0.02"/>
<circle cx="-0.37087798" cy="-0.383919" fill="green" r="0.02"/>
<circle cx="-0.21389055" cy="-0.47635698" fill="green" r="0.02"/>
<circle cx="-0.38355374" cy="-0.6417272" fill="green" r="0.02"/>
<circle cx="-0.42749667" cy="-0.59472847" fill="green" r="0.02"/>
<circle cx="-0.79154897" cy="-0.65647554" fill="green" r="0.02"/>
<circle cx="-0.5179124" cy="-0.8687706" fill="green" r="0.02"/>
<circle cx="-0.4618299" cy="-0.84721804" fill="green" r="0.02"/>
<circle cx="-0.25807834" cy="-0.9230919" fill="green" r="0.02"/>
<circle cx="0.2969451" cy="-0.84318924" fill="green" r="0.02"/>
</g>
<path d="M0.9851427,0.15078616 L0.5446265,-0.14496732 L0.47454643,-0.1513288 L0.22102594,-0.3591385 L0.47431207,-0.42281246 L0.65073204,-0.52282953 L0.7088101,-0.5615885 L0.9632604,-0.6908834 L0.7267232,-0.8003166 L0.28410363,-0.7000823" fill="none" stroke="blue" stroke-width="0.01"/>
<g>
<circle cx="0.9851427" cy="0.15078616" fill="blue" r="0.02"/>
<circle cx="0.5446265" cy="-0.14496732" fill="blue" r="0.02"/>
<circle cx="0.47454643" cy="-0.1513288" fill="blue" r="0.02"/>
<circle cx="0.22102594" cy="-0.3591385" fill="blue" r="0.02"/>
<circle cx="0.47431207" cy="-0.42281246" fill="blue" r="0.02"/>
<circle cx="0.65073204" cy="-0.52282953" fill="blue" r="0.02"/>
<circle cx="0.7088101" cy="-0.5615885" fill="blue" r="0.02"/>
<circle cx="0.9632604" cy="-0.6908834" fill="blue" r="0.02"/>
<circle cx="0.7267232" cy="-0.8003166" fill="blue" r="0.02"/>
<circle cx="0.28410363" cy="-0.7000823" fill="blue" r="0.02"/>
</g>
</svg>