<svg viewBox="-1.2 -1.2 2.4 2.4" xmlns="http://www.w3.org/2000/svg">
<path d="M-0.8686979,-0.50001884 L-0.8975222,-0.5692544 L-0.91859555,-0.6206143 L-0.34713912,-0.11833978 L-0.46132088,0.13303566 L-0.23695469,0.2572689 L0.041842222,0.23617887 L0.24064732,0.90812874 L0.063418865,0.6681018 L-0.038674593,0.65422034 L-0.089003325,0.50802517 L-0.4155078,0.47703552 L-0.73377347,0.79204345 L-0.73212385,0.9212303 L-0.90825987,0.9174702 L-0.8783047,0.596297 L-0.6903591,0.40143037 L-0.52636623,0.22565651 L-0.5191238,0.12287569 L-0.5355456,0.060571432 L-0.8686979,-0.50001884" fill="none" stroke="red" stroke-width="0.01"/>
<g>
<circle cx="-0.8686979" cy="-0.50001884" fill="red" r="0.02"/>
<circle cx="-0.8975222" cy="-0.5692544" fill="red" r="0.02"/>
<circle cx="-0.91859555" cy="-0.6206143" fill="red" r="0.02"/>
<circle cx="-0.34713912" cy="-0.11833978" fill="red" r="0.02"/>
<circle cx="-0.46132088" cy="0.13303566" fill="red" r="0.02"/>
<circle cx="-0.23695469" cy="0.2572689" fill="red" r="0.02"/>
<circle cx="0.041842222" cy="0.23617887" fill="red" r="0.02"/>
<circle cx="0.24064732" cy="0.90812874" fill="red" r="0.02"/>
<circle cx="0.063418865" cy="0.6681018" fill="red" r="0.02"/>
<circle cx="-0.038674593" cy="0.65422034" fill="red" r="0.02"/>
<circle cx="-0.089003325" cy="0.50802517" fill="red" r="0.02"/>
<circle cx="-0.4155078" cy="0.47703552" fill="red" r="0.02"/>
<circle cx="-0.73377347" cy="0.79204345" fill="red" r="0.02"/>
<circle cx="-0.73212385" cy="0.9212303" fill="red" r="0.02"/>
<circle cx="-0.90825987" cy="0.9174702" fill="red" r="0.02"/>
<circle cx="-0.8783047" cy="0.596297" fill="red" r="0.02"/>
<circle cx="-0.6903591" cy="0.40143037" fill="red" r="0.02"/>
<circle cx="-0.52636623" cy="0.22565651" fill="red" r="0.02"/>
<circle cx="-0.5191238" cy="0.12287569" fill="red" r="0.02"/>
<circle cx="-0.5355456" cy="0.060571432" fill="red" r="0.02"/>
<circle cx="-0.8686979" cy="-0.50001884" fill="red" r="0.02"/>
</g>
<path d="M0.90444326,0.97471595 L0.43475962,0.108448505 L0.17381501,-0.07427502 L-0.11183858,-0.056016207 L-0.2548864,-0.29071474 L-0.30293608,-0.5036206 L-0.8076539,-0.913188 L-0.29480314,-0.943316 L-0.04395151,-0.6580107 L0.18684125,-0.741786 L0.3216908,-0.93807745 L0.4023795,-0.94917035 L0.81292224,-0.9301126 L0.7024348,-0.8106537 L0.6390438,-0.7020211 L0.7278936,-0.27008963 L0.63420105,-0.1607449 L0.6316314,-0.13134432 L0.81218934,0.27711177 L0.8401129,0.5366273 L0.90444326,0.97471595" fill="none" stroke="green" stroke-width="0.01"/>
<g>
<circle cx="0.90444326" cy="0.97471595" fill="green" r="0.02"/>
<circle cx="0.43475962" cy="0.108448505" fill="green" r="0.02"/>
<circle cx="0.17381501" cy="-0.07427502" fill="green" r="0.02"/>
<circle cx="-0.11183858" cy="-0.056016207" fill="green" r="0.02"/>
<circle cx="-0.2548864" cy="-0.29071474" fill="green" r="0.02"/>
<circle cx="-0.30293608" cy="-0.5036206" fill="green" r="0.02"/>
<circle cx="-0.8076539" cy="-0.913188" fill="green" r="0.02"/>
<circle cx="-0.29480314" cy="-0.943316" fill="green" r="0.02"/>
<circle cx="-0.04395151" cy="-0.6580107" fill="green" r="0.02"/>
<circle cx="0.18684125" cy="-0.741786" fill="green" r="0.02"/>
<circle cx="0.3216908" cy="-0.93807745" fill="green" r="0.02"/>
<circle cx="0.4023795" cy="-0.94917035" fill="green" r="0.02"/>
<circle cx="0.81292224" cy="-0.9301126" fill="green" r="0.02"/>
<circle cx="0.7024348" cy="-0.8106537" fill="green" r="0.02"/>
<circle cx="0.6390438" cy="-0.7020211" fill="green" r="0.02"/>
<circle cx="0.7278936" cy="-0.27008963" fill="green" r="0.02"/>
<circle cx="0.63420105" cy="-0.1607449" fill="green" r="0.02"/>
<circle cx="0.6316314" cy="-0.13134432" fill="green" r="0.02"/>
<circle cx="0.81218934" cy="0.27711177" fill="green" r="0.02"/>
<circle cx="0.8401129" cy="0.5366273" fill="green" r="0.02"/>
<circle cx="0.90444326" cy="0.97471595" fill="green" r="0.02"/>
</g>
</svg>